<svg width="408" height="408" viewBox="0 0 408 408" fill="none" xmlns="http://www.w3.org/2000/svg">
<path d="M408 312.038H0V312.242H408V312.038Z" fill="#E0E0E0"/>
<path d="M308.171 320.68H280.1V320.884H308.171V320.68Z" fill="#E0E0E0"/>
<path d="M90.6086 320.778H74.8109V320.982H90.6086V320.778Z" fill="#E0E0E0"/>
<path d="M204.816 320.304H172.796V320.508H204.816V320.304Z" fill="#E0E0E0"/>
<path d="M171.98 317.399H157.668V317.603H171.98V317.399Z" fill="#E0E0E0"/>
<path d="M346.441 317.505H303.201V317.709H346.441V317.505Z" fill="#E0E0E0"/>
<path d="M193.392 275.645H35.8306C34.5962 275.643 33.4132 275.151 32.5412 274.277C31.6691 273.404 31.1793 272.22 31.1794 270.985V49.4984C31.1901 48.2712 31.6846 47.0978 32.5555 46.233C33.4264 45.3682 34.6033 44.882 35.8306 44.8799H193.392C194.628 44.8799 195.813 45.3708 196.687 46.2446C197.56 47.1184 198.051 48.3035 198.051 49.5392V270.985C198.051 272.221 197.56 273.406 196.687 274.28C195.813 275.154 194.628 275.645 193.392 275.645ZM35.8306 45.0431C34.6503 45.0452 33.5192 45.5156 32.6854 46.3509C31.8516 47.1862 31.3833 48.3182 31.3834 49.4984V270.985C31.3833 272.166 31.8516 273.298 32.6854 274.133C33.5192 274.968 34.6503 275.439 35.8306 275.441H193.392C194.573 275.439 195.705 274.968 196.54 274.133C197.375 273.298 197.845 272.166 197.847 270.985V49.4984C197.845 48.3175 197.375 47.1855 196.54 46.3504C195.705 45.5153 194.573 45.0452 193.392 45.0431H35.8306Z" fill="#E0E0E0"/>
<path d="M369.901 275.645H212.331C211.096 275.643 209.912 275.151 209.039 274.278C208.166 273.404 207.674 272.22 207.672 270.985V49.4984C207.685 48.2705 208.181 47.097 209.053 46.2325C209.926 45.3679 211.103 44.882 212.331 44.8799H369.901C371.127 44.8841 372.302 45.3713 373.171 46.2359C374.04 47.1004 374.533 48.2726 374.544 49.4984V270.985C374.544 272.218 374.055 273.401 373.185 274.274C372.315 275.148 371.134 275.64 369.901 275.645ZM212.331 45.0431C211.15 45.0452 210.018 45.5153 209.183 46.3504C208.348 47.1855 207.878 48.3175 207.876 49.4984V270.985C207.878 272.166 208.348 273.298 209.183 274.133C210.018 274.968 211.15 275.439 212.331 275.441H369.901C371.082 275.439 372.214 274.968 373.049 274.133C373.884 273.298 374.354 272.166 374.356 270.985V49.4984C374.354 48.3175 373.884 47.1855 373.049 46.3504C372.214 45.5153 371.082 45.0452 369.901 45.0431H212.331Z" fill="#E0E0E0"/>
<path d="M358.477 209.9C348.44 194.616 357.604 178.19 356.078 161.184C354.552 144.179 338.395 140.474 341.455 126.096C344.997 109.385 335.556 93.3503 324.858 93.3503C314.16 93.3503 304.727 109.344 308.268 126.072C311.328 140.474 295.212 144.187 293.646 161.16C292.079 178.133 301.284 194.616 291.239 209.875C281.194 225.134 283.837 245.396 289.492 255.441C290.997 258.106 292.81 260.585 294.894 262.825C298.727 266.94 303.365 270.221 308.521 272.464C313.677 274.707 319.239 275.865 324.862 275.865C330.485 275.865 336.047 274.707 341.203 272.464C346.358 270.221 350.997 266.94 354.829 262.825C356.909 260.582 358.719 258.104 360.223 255.441C365.886 245.42 368.522 225.216 358.477 209.9Z" fill="#3A3838"/>
<path d="M324.858 221.495C325.524 221.495 326.184 221.626 326.8 221.881C327.416 222.136 327.975 222.51 328.447 222.981C328.918 223.453 329.292 224.012 329.547 224.628C329.802 225.244 329.933 225.904 329.933 226.57V312.038H319.782V226.57C319.782 225.904 319.914 225.244 320.169 224.628C320.424 224.012 320.798 223.453 321.269 222.981C321.74 222.51 322.3 222.136 322.915 221.881C323.531 221.626 324.191 221.495 324.858 221.495Z" fill="#595959"/>
<path d="M261.047 312.038H247.248V226.579C247.252 224.747 247.982 222.991 249.277 221.696C250.572 220.401 252.328 219.671 254.16 219.667C255.991 219.671 257.747 220.401 259.042 221.696C260.337 222.991 261.067 224.747 261.071 226.579L261.047 312.038Z" fill="#595959"/>
<path d="M254.135 288.986C277.646 288.986 296.706 269.927 296.706 246.415C296.706 222.904 277.646 203.845 254.135 203.845C230.624 203.845 211.564 222.904 211.564 246.415C211.564 269.927 230.624 288.986 254.135 288.986Z" fill="#3A3838"/>
<path d="M304.159 233.641C306.393 224.649 300.914 215.548 291.921 213.315C282.929 211.081 273.828 216.56 271.594 225.552C269.361 234.545 274.84 243.645 283.832 245.879C292.825 248.113 301.925 242.634 304.159 233.641Z" fill="#F0F0F0"/>
<path d="M229.501 221.258C230.383 215.844 226.709 210.741 221.296 209.86C215.882 208.978 210.779 212.652 209.898 218.065C209.016 223.478 212.69 228.581 218.103 229.463C223.516 230.345 228.619 226.671 229.501 221.258Z" fill="#3A3838"/>
<path d="M230.504 221.495C234.352 221.495 237.472 218.375 237.472 214.526C237.472 210.678 234.352 207.558 230.504 207.558C226.655 207.558 223.535 210.678 223.535 214.526C223.535 218.375 226.655 221.495 230.504 221.495Z" fill="#3A3838"/>
<path d="M166.464 261.03C159.844 262.016 153.518 264.43 147.924 268.105C147.876 261.642 146.692 255.514 143.657 250.561C139.038 255.057 135.293 260.883 132.233 267.15C131.115 255.408 128.022 243.984 121.176 236.746C110.919 243.201 105.631 253.956 103.118 265.347C98.9658 257.666 92.9393 251.159 85.5984 246.432C79.3234 253.042 77.316 262.181 77.4874 271.548C70.3555 263.242 62.4403 256.763 54.721 256.004C52.8197 269.133 56.867 281.52 62.016 291.312C65.3589 297.595 70.3529 302.846 76.4598 306.499C82.5668 310.153 89.555 312.071 96.6715 312.047H130.201C144.489 312.047 157.888 304.425 164.587 291.802C168.822 283.805 170.846 273.515 166.464 261.03Z" fill="#3A3838"/>
<path d="M156.884 91.5061C161.021 79.3722 157.7 70.7307 147.606 70.7307C141.258 70.7307 133.383 74.1334 125.713 79.6659C124.848 76.508 122.408 74.623 118.483 74.623C111.572 74.623 102.049 80.4656 94.5826 88.7072C92.4804 86.71 89.6975 85.5869 86.7979 85.5656C80.1802 85.1902 72.1752 88.5522 65.2147 94.0112C64.8659 93.523 64.4055 93.1254 63.8717 92.8514C63.338 92.5775 62.7465 92.4351 62.1466 92.4363C58.3358 92.2242 53.1706 95.6187 50.6165 100.009C50.4614 100.278 50.3227 100.547 50.1758 100.825H158.892C159.218 96.9896 158.541 93.7909 156.884 91.5061Z" fill="#3A3838"/>
<path d="M157.219 165.183C159.242 159.259 157.635 155.04 152.69 155.04C149.581 155.04 145.738 156.672 141.992 159.405C141.79 158.644 141.324 157.979 140.676 157.531C140.029 157.082 139.243 156.879 138.459 156.957C135.089 156.957 130.438 159.813 126.782 163.844C125.757 162.866 124.396 162.317 122.979 162.31C119.715 162.123 115.839 163.763 112.437 166.431C112.272 166.195 112.053 166.001 111.8 165.865C111.546 165.729 111.264 165.655 110.976 165.648C109.116 165.542 106.594 167.198 105.346 169.344L105.125 169.736H158.231C158.453 168.146 158.093 166.529 157.219 165.183Z" fill="#3A3838"/>
<path d="M279.7 120.352C279.281 120.293 278.859 120.263 278.436 120.262C278.827 114.346 276.567 110.56 271.728 110.56C268.244 110.56 263.96 112.535 259.602 115.872C260.851 104.383 256.852 96.9163 247.795 96.9163C240.5 96.9163 231.254 101.812 222.123 109.695C221.307 105.19 218.631 102.481 214.11 102.481C206.171 102.481 194.885 110.837 185.836 122.62C184.805 121.262 183.482 120.151 181.966 119.37C180.449 118.589 178.777 118.158 177.072 118.108C169.516 117.577 160.124 122.375 151.776 130.193C151.472 129.534 150.989 128.973 150.381 128.576C149.774 128.179 149.066 127.962 148.341 127.949C144.204 127.655 138.549 131.972 135.195 137.741H286.351C289.9 128.993 287.077 121.339 279.7 120.352Z" fill="#3A3838"/>
<path d="M204 348.889C291.379 348.889 362.214 344.753 362.214 339.652C362.214 334.55 291.379 330.415 204 330.415C116.621 330.415 45.7858 334.55 45.7858 339.652C45.7858 344.753 116.621 348.889 204 348.889Z" fill="#3A3838"/>
<path d="M39.8698 122.857L225.893 149.638L250.855 174.828L39.8698 122.857Z" fill="#71D868"/>
<path opacity="0.6" d="M39.8698 122.857L225.893 149.638L250.855 174.828L39.8698 122.857Z" fill="white"/>
<path d="M39.8698 122.857L225.893 149.638L217.26 186.064L39.8698 122.857Z" fill="#71D868"/>
<path opacity="0.2" d="M39.8698 122.857L225.893 149.638L217.26 186.064L39.8698 122.857Z" fill="black"/>
<path d="M213.441 80.6861L224.237 131.278C224.518 132.599 224.263 133.978 223.529 135.111C222.794 136.245 221.64 137.041 220.32 137.325L123.967 157.888C122.646 158.166 121.268 157.911 120.135 157.177C119.002 156.443 118.206 155.29 117.92 153.971L107.116 103.379C106.838 102.057 107.095 100.679 107.83 99.5453C108.566 98.4121 109.72 97.6164 111.041 97.3325L207.395 76.7693C208.717 76.4909 210.095 76.7476 211.228 77.4832C212.362 78.2188 213.157 79.3734 213.441 80.6943V80.6861Z" fill="#71D868"/>
<path opacity="0.4" d="M213.441 80.6861L224.237 131.278C224.518 132.599 224.263 133.978 223.529 135.111C222.794 136.245 221.64 137.041 220.32 137.325L123.967 157.888C122.646 158.166 121.268 157.911 120.135 157.177C119.002 156.443 118.206 155.29 117.92 153.971L107.116 103.379C106.838 102.057 107.095 100.679 107.83 99.5453C108.566 98.4121 109.72 97.6164 111.041 97.3325L207.395 76.7693C208.717 76.4909 210.095 76.7476 211.228 77.4832C212.362 78.2188 213.157 79.3734 213.441 80.6943V80.6861Z" fill="black"/>
<path d="M211.067 77.373L178.875 116.892C175.89 120.556 171.743 123.091 167.121 124.078C162.499 125.064 157.678 124.444 153.457 122.318L107.932 99.3887C108.669 98.3307 109.78 97.5926 111.041 97.3242L207.395 76.761C208.652 76.4934 209.964 76.7121 211.067 77.373Z" fill="#71D868"/>
<path d="M39.8698 122.857L193.302 159.324L217.26 186.064L39.8698 122.857Z" fill="#71D868"/>
<path opacity="0.6" d="M39.8698 122.857L193.302 159.324L217.26 186.064L39.8698 122.857Z" fill="white"/>
<path d="M95.8384 158.006L95.426 158.71L112.5 168.712L112.913 168.008L95.8384 158.006Z" fill="#71D868"/>
<path d="M120.451 172.417L120.039 173.121L126.179 176.718L126.591 176.013L120.451 172.417Z" fill="#71D868"/>
<path d="M39.8698 122.857L193.302 159.324L163.477 195.269L39.8698 122.857Z" fill="#71D868"/>
<path d="M245.094 208.292C244.887 208.293 244.682 208.254 244.49 208.178L219.504 198.288C219.104 198.127 218.784 197.814 218.614 197.418C218.444 197.022 218.438 196.575 218.596 196.174C218.754 195.774 219.065 195.452 219.46 195.279C219.855 195.106 220.302 195.097 220.704 195.252L245.698 205.142C246.051 205.282 246.345 205.541 246.528 205.874C246.711 206.207 246.772 206.594 246.701 206.967C246.629 207.341 246.429 207.677 246.136 207.919C245.843 208.161 245.474 208.293 245.094 208.292Z" fill="#71D868"/>
<path opacity="0.3" d="M245.094 208.292C244.887 208.293 244.682 208.254 244.49 208.178L219.504 198.288C219.104 198.127 218.784 197.814 218.614 197.418C218.444 197.022 218.438 196.575 218.596 196.174C218.754 195.774 219.065 195.452 219.46 195.279C219.855 195.106 220.302 195.097 220.704 195.252L245.698 205.142C246.051 205.282 246.345 205.541 246.528 205.874C246.711 206.207 246.772 206.594 246.701 206.967C246.629 207.341 246.429 207.677 246.136 207.919C245.843 208.161 245.474 208.293 245.094 208.292Z" fill="black"/>
<path d="M243.617 193.963C243.412 193.962 243.21 193.92 243.021 193.841L229.598 188.496C229.397 188.418 229.214 188.302 229.058 188.153C228.903 188.004 228.779 187.826 228.692 187.628C228.606 187.431 228.56 187.219 228.556 187.004C228.552 186.789 228.591 186.575 228.67 186.375C228.749 186.174 228.867 185.992 229.017 185.837C229.167 185.683 229.346 185.56 229.543 185.475C229.741 185.39 229.954 185.345 230.169 185.342C230.384 185.34 230.598 185.38 230.797 185.46L244.221 190.781C244.623 190.939 244.946 191.251 245.119 191.647C245.292 192.043 245.3 192.492 245.143 192.894C245.028 193.207 244.82 193.477 244.547 193.668C244.274 193.859 243.95 193.962 243.617 193.963Z" fill="#71D868"/>
<path opacity="0.5" d="M243.617 193.963C243.412 193.962 243.21 193.92 243.021 193.841L229.598 188.496C229.397 188.418 229.214 188.302 229.058 188.153C228.903 188.004 228.779 187.826 228.692 187.628C228.606 187.431 228.56 187.219 228.556 187.004C228.552 186.789 228.591 186.575 228.67 186.375C228.749 186.174 228.867 185.992 229.017 185.837C229.167 185.683 229.346 185.56 229.543 185.475C229.741 185.39 229.954 185.345 230.169 185.342C230.384 185.34 230.598 185.38 230.797 185.46L244.221 190.781C244.623 190.939 244.946 191.251 245.119 191.647C245.292 192.043 245.3 192.492 245.143 192.894C245.028 193.207 244.82 193.477 244.547 193.668C244.274 193.859 243.95 193.962 243.617 193.963Z" fill="white"/>
<path d="M215.555 208.08C215.351 208.078 215.149 208.039 214.959 207.966L190.585 198.288C190.384 198.21 190.201 198.094 190.046 197.945C189.89 197.796 189.766 197.618 189.679 197.42C189.593 197.223 189.547 197.011 189.543 196.796C189.539 196.581 189.578 196.367 189.657 196.166C189.736 195.966 189.854 195.784 190.004 195.629C190.154 195.475 190.333 195.352 190.53 195.267C190.728 195.182 190.941 195.137 191.156 195.134C191.371 195.132 191.585 195.172 191.784 195.252L216.158 204.898C216.512 205.037 216.806 205.296 216.989 205.629C217.172 205.963 217.233 206.349 217.161 206.723C217.09 207.096 216.89 207.433 216.597 207.675C216.303 207.916 215.935 208.048 215.555 208.047V208.08Z" fill="#71D868"/>
<path opacity="0.3" d="M215.555 208.08C215.351 208.078 215.149 208.039 214.959 207.966L190.585 198.288C190.384 198.21 190.201 198.094 190.046 197.945C189.89 197.796 189.766 197.618 189.679 197.42C189.593 197.223 189.547 197.011 189.543 196.796C189.539 196.581 189.578 196.367 189.657 196.166C189.736 195.966 189.854 195.784 190.004 195.629C190.154 195.475 190.333 195.352 190.53 195.267C190.728 195.182 190.941 195.137 191.156 195.134C191.371 195.132 191.585 195.172 191.784 195.252L216.158 204.898C216.512 205.037 216.806 205.296 216.989 205.629C217.172 205.963 217.233 206.349 217.161 206.723C217.09 207.096 216.89 207.433 216.597 207.675C216.303 207.916 215.935 208.048 215.555 208.047V208.08Z" fill="black"/>
<path d="M303.797 134.493C305.959 138.712 307.942 142.939 309.827 147.264C311.712 151.588 313.466 155.97 315 160.564L315.555 162.302C315.653 162.613 315.792 163.118 315.874 163.477C315.955 163.837 316.029 164.245 316.069 164.587C316.256 165.904 316.352 167.232 316.355 168.561C316.367 171.013 316.253 173.465 316.012 175.905C315.557 180.629 314.815 185.322 313.793 189.957L309.313 189.459C309.256 184.865 309.215 180.222 309.052 175.693C308.978 173.441 308.848 171.181 308.619 169.059C308.516 168.063 308.352 167.073 308.13 166.097C308.089 165.868 308.024 165.697 307.975 165.509C307.926 165.322 307.877 165.256 307.795 165.012L307.175 163.469C305.47 159.34 303.552 155.179 301.594 151.033L295.669 138.598L303.797 134.493Z" fill="#E4897B"/>
<path d="M309.378 188.023L307.289 191.931L313.964 193.792C313.964 193.792 315.237 190.65 313.719 188.17L309.378 188.023Z" fill="#E4897B"/>
<path d="M304.735 197.562L310.872 198.051L313.964 193.792L307.289 191.931L304.735 197.562Z" fill="#E4897B"/>
<path d="M275.702 106.292C275.612 106.773 275.278 107.108 274.968 107.043C274.657 106.977 274.486 106.545 274.584 106.072C274.682 105.598 275.008 105.256 275.318 105.321C275.628 105.386 275.808 105.819 275.702 106.292Z" fill="#263238"/>
<path d="M275.327 107.108C274.465 108.443 273.424 109.654 272.234 110.707C272.512 111.002 272.85 111.234 273.227 111.386C273.603 111.538 274.007 111.607 274.413 111.588L275.327 107.108Z" fill="#DE5753"/>
<path d="M277.97 104.015C277.893 104.014 277.82 103.981 277.766 103.926C277.532 103.658 277.238 103.448 276.907 103.315C276.577 103.182 276.22 103.128 275.865 103.159C275.798 103.159 275.732 103.136 275.68 103.093C275.628 103.05 275.593 102.989 275.581 102.923C275.569 102.856 275.582 102.788 275.616 102.729C275.65 102.671 275.703 102.626 275.767 102.604C276.221 102.546 276.682 102.602 277.109 102.766C277.536 102.929 277.916 103.196 278.215 103.542C278.268 103.596 278.297 103.667 278.297 103.742C278.297 103.817 278.268 103.889 278.215 103.942C278.183 103.972 278.144 103.994 278.101 104.007C278.059 104.019 278.014 104.022 277.97 104.015Z" fill="#263238"/>
<path d="M289.199 112.959C288.342 117.349 287.485 125.378 290.553 128.308C290.553 128.308 289.354 132.755 281.202 132.755C272.226 132.755 276.926 128.308 276.926 128.308C281.822 127.141 281.683 123.51 280.835 120.107L289.199 112.959Z" fill="#E4897B"/>
<path d="M291.785 131.074C292.43 128.928 293.14 126.472 291.671 125.697C290.039 124.881 281.169 123.983 278.109 125.574C275.049 127.165 275.922 131.531 275.922 131.531L291.785 131.074Z" fill="#263238"/>
<path d="M310.602 334.56C310.349 334.594 310.091 334.576 309.845 334.509C309.598 334.442 309.367 334.326 309.166 334.168C309.095 334.07 309.057 333.951 309.057 333.83C309.057 333.708 309.095 333.59 309.166 333.491C309.213 333.406 309.277 333.333 309.354 333.275C309.432 333.217 309.521 333.177 309.615 333.156C310.496 332.961 312.144 334.087 312.218 334.136C312.239 334.153 312.255 334.176 312.265 334.202C312.275 334.227 312.279 334.255 312.275 334.282C312.27 334.309 312.258 334.333 312.239 334.352C312.22 334.371 312.195 334.384 312.169 334.389C311.654 334.5 311.129 334.557 310.602 334.56ZM309.852 333.418H309.68C309.625 333.429 309.573 333.452 309.528 333.486C309.483 333.52 309.445 333.564 309.419 333.613C309.288 333.842 309.37 333.94 309.419 333.972C309.672 334.315 310.896 334.315 311.794 334.168C311.209 333.782 310.545 333.531 309.852 333.434V333.418Z" fill="#71D868"/>
<path d="M312.136 334.413H312.071C311.451 334.07 310.251 332.781 310.374 332.096C310.395 331.99 310.452 331.894 310.535 331.826C310.618 331.758 310.723 331.72 310.831 331.72C310.938 331.709 311.047 331.719 311.151 331.749C311.254 331.78 311.351 331.831 311.435 331.9C312.128 332.471 312.251 334.201 312.251 334.274C312.254 334.3 312.249 334.326 312.238 334.35C312.226 334.373 312.208 334.392 312.185 334.405C312.17 334.411 312.153 334.414 312.136 334.413ZM310.929 331.965H310.896C310.708 331.965 310.692 332.079 310.684 332.112C310.61 332.512 311.377 333.499 311.989 333.964C311.948 333.283 311.704 332.629 311.288 332.087C311.233 332.045 311.17 332.013 311.103 331.995C311.035 331.977 310.965 331.972 310.896 331.981L310.929 331.965Z" fill="#71D868"/>
<path d="M274.608 334.56C273.841 334.56 273.099 334.454 272.846 334.111C272.782 334.02 272.748 333.912 272.748 333.801C272.748 333.69 272.782 333.582 272.846 333.491C272.895 333.407 272.961 333.334 273.04 333.277C273.119 333.219 273.208 333.178 273.303 333.157C274.29 332.887 276.396 334.079 276.485 334.128C276.509 334.143 276.528 334.165 276.54 334.191C276.551 334.217 276.555 334.246 276.551 334.274C276.546 334.303 276.532 334.329 276.512 334.35C276.491 334.37 276.465 334.384 276.436 334.389C275.834 334.502 275.222 334.559 274.608 334.56ZM273.654 333.401C273.564 333.388 273.474 333.388 273.384 333.401C273.327 333.413 273.273 333.436 273.225 333.47C273.177 333.503 273.137 333.547 273.107 333.597C273.001 333.777 273.042 333.858 273.107 333.907C273.376 334.283 274.894 334.307 276.02 334.152C275.287 333.756 274.483 333.507 273.654 333.418V333.401Z" fill="#71D868"/>
<path d="M276.42 334.413H276.363C275.637 334.095 274.209 332.781 274.315 332.12C274.315 331.957 274.453 331.761 274.845 331.72C274.991 331.698 275.14 331.709 275.281 331.751C275.422 331.793 275.552 331.866 275.661 331.965C276.428 332.585 276.583 334.201 276.591 334.274C276.595 334.299 276.591 334.325 276.581 334.348C276.571 334.371 276.555 334.39 276.534 334.405C276.517 334.414 276.498 334.42 276.478 334.421C276.458 334.423 276.439 334.42 276.42 334.413ZM274.959 331.965H274.87C274.617 331.965 274.6 332.096 274.592 332.128C274.527 332.536 275.506 333.556 276.224 333.997C276.154 333.311 275.868 332.666 275.408 332.153C275.292 332.052 275.146 331.992 274.992 331.981L274.959 331.965Z" fill="#71D868"/>
<path d="M283.013 334.266H277.016L276.42 320.386H282.418L283.013 334.266Z" fill="#E4897B"/>
<path d="M319.007 334.266H313.009L309.998 320.386H315.988L319.007 334.266Z" fill="#E4897B"/>
<path d="M312.585 333.573H319.317C319.437 333.573 319.554 333.615 319.647 333.691C319.74 333.766 319.805 333.871 319.831 333.989L321.014 339.317C321.041 339.447 321.039 339.581 321.007 339.71C320.975 339.838 320.914 339.958 320.83 340.06C320.745 340.162 320.638 340.243 320.518 340.299C320.397 340.354 320.266 340.381 320.133 340.378C317.783 340.337 316.641 340.198 313.679 340.198C311.859 340.198 308.105 340.394 305.584 340.394C303.062 340.394 302.744 337.946 303.772 337.677C308.391 336.665 310.129 335.27 311.606 333.948C311.874 333.705 312.223 333.571 312.585 333.573Z" fill="#263238"/>
<path d="M277.056 333.573H283.584C283.705 333.573 283.821 333.615 283.914 333.691C284.008 333.766 284.073 333.871 284.099 333.989L285.282 339.317C285.31 339.446 285.309 339.579 285.278 339.707C285.248 339.835 285.189 339.955 285.106 340.057C285.023 340.159 284.917 340.241 284.798 340.296C284.679 340.352 284.548 340.38 284.417 340.378C282.059 340.337 278.648 340.198 275.677 340.198C272.209 340.198 269.207 340.394 265.135 340.394C262.687 340.394 261.993 337.946 263.021 337.677C267.713 336.649 271.54 336.543 275.596 334.046C276.028 333.752 276.534 333.588 277.056 333.573Z" fill="#263238"/>
<path d="M274.176 138.834C269.163 138.446 264.176 137.784 259.235 136.851C256.787 136.378 254.29 135.848 251.809 135.178C249.267 134.528 246.77 133.71 244.335 132.73C243.707 132.469 243.07 132.184 242.442 131.914C241.734 131.566 241.053 131.168 240.402 130.723C239.227 129.948 238.215 129.14 237.211 128.34C235.212 126.708 233.36 125.076 231.499 123.404C227.852 120.025 224.392 116.533 221.054 112.861L224.057 109.507L235.897 118.018C237.848 119.421 239.822 120.801 241.764 122.098C242.727 122.743 243.715 123.346 244.62 123.861C244.999 124.077 245.392 124.267 245.796 124.432C246.277 124.619 246.767 124.807 247.281 124.987C251.691 126.345 256.201 127.354 260.769 128.006C265.428 128.74 270.243 129.344 274.894 129.834L274.176 138.834Z" fill="#E4897B"/>
<path d="M301.284 129.662C306.906 130.952 312.585 147.378 312.585 147.378L301.022 155.676C301.022 155.676 297.758 148.022 294.609 141.331C291.312 134.322 295.539 128.348 301.284 129.662Z" fill="#71D868"/>
<path opacity="0.4" d="M301.284 129.662C306.906 130.952 312.585 147.378 312.585 147.378L301.022 155.676C301.022 155.676 297.758 148.022 294.609 141.331C291.312 134.322 295.539 128.348 301.284 129.662Z" fill="black"/>
<path d="M298.044 138.638L295.751 143.771C298.126 148.896 300.296 153.971 300.876 155.326C300.794 149.263 299.643 141.739 298.044 138.638Z" fill="#71D868"/>
<path opacity="0.6" d="M298.044 138.638L295.751 143.771C298.126 148.896 300.296 153.971 300.876 155.326C300.794 149.263 299.643 141.739 298.044 138.638Z" fill="black"/>
<path d="M267.705 129.972C267.705 129.972 261.324 137.178 267.346 181.788H299.407C299.635 176.892 296.543 152.853 301.284 129.662C297.74 128.98 294.155 128.527 290.553 128.308C286.015 128.046 281.465 128.046 276.926 128.308C273.814 128.621 270.731 129.178 267.705 129.972Z" fill="#71D868"/>
<path opacity="0.4" d="M267.705 129.972C267.705 129.972 261.324 137.178 267.346 181.788H299.407C299.635 176.892 296.543 152.853 301.284 129.662C297.74 128.98 294.155 128.527 290.553 128.308C286.015 128.046 281.465 128.046 276.926 128.308C273.814 128.621 270.731 129.178 267.705 129.972Z" fill="black"/>
<path d="M265.331 138.638C265.118 140.328 264.955 142.327 264.849 144.685C268.015 143.735 271.024 142.321 273.776 140.491L265.331 138.638Z" fill="#71D868"/>
<path opacity="0.6" d="M265.331 138.638C265.118 140.328 264.955 142.327 264.849 144.685C268.015 143.735 271.024 142.321 273.776 140.491L265.331 138.638Z" fill="black"/>
<path d="M279.072 139.536C274.78 143.339 258.395 142.955 258.395 142.955L257.856 127.092C263.389 127.88 268.97 128.284 274.56 128.3C283.691 128.112 283.756 135.342 279.072 139.536Z" fill="#71D868"/>
<path opacity="0.4" d="M279.072 139.536C274.78 143.339 258.395 142.955 258.395 142.955L257.856 127.092C263.389 127.88 268.97 128.284 274.56 128.3C283.691 128.112 283.756 135.342 279.072 139.536Z" fill="black"/>
<path d="M224.212 109.54L220.132 104.734L215.734 109.63C215.734 109.63 218.443 114.183 222.744 113.465L224.212 109.54Z" fill="#E4897B"/>
<path d="M214.29 99.1277L212.707 105.403L215.701 109.597L220.1 104.734L214.29 99.1277Z" fill="#E4897B"/>
<path d="M276.42 320.394L276.73 327.542H282.728L282.418 320.394H276.42Z" fill="#CE6F64"/>
<path d="M315.996 320.394H309.998L311.549 327.542H317.546L315.996 320.394Z" fill="#CE6F64"/>
<path d="M280.027 100.368C274.649 97.9199 272.952 87.0426 288.423 89.7599C288.423 89.7599 286.09 92.3385 290.822 93.9705C295.555 95.6025 291.598 105.68 280.027 100.368Z" fill="#263238"/>
<path d="M291.712 108.528C290.17 114.24 289.566 117.716 286 120.107C280.663 123.697 274.029 119.577 273.817 113.481C273.629 108.006 276.183 99.5276 282.344 98.3688C283.704 98.1022 285.109 98.1884 286.427 98.6193C287.744 99.0501 288.928 99.8112 289.868 100.83C290.807 101.849 291.47 103.091 291.793 104.439C292.115 105.786 292.088 107.194 291.712 108.528Z" fill="#E4897B"/>
<path d="M288.211 92.6159C291.875 94.6559 296.836 95.8798 296.371 98.7848C295.759 102.334 299.366 100.115 298.525 105.394C297.979 108.846 291.614 119.307 287.101 118.801C280.361 117.985 281.218 107.736 281.194 102.334C281.177 99.1439 281.03 88.593 288.211 92.6159Z" fill="#263238"/>
<path d="M280.386 97.1936C278.754 97.5771 276.591 106.986 282.915 107.851C290.186 108.838 280.386 97.1936 280.386 97.1936Z" fill="#263238"/>
<path d="M280.549 100.531C278.55 100.711 274.021 98.3036 274.576 94.6805C274.576 94.656 277.44 98.9156 280.549 100.531Z" fill="#263238"/>
<path d="M283.519 108.601C282.906 109.947 281.864 111.051 280.557 111.743C278.835 112.641 277.864 111.335 278.256 109.605C278.607 108.055 279.929 105.713 281.7 105.525C283.47 105.337 284.229 106.969 283.519 108.601Z" fill="#E4897B"/>
<path d="M292.495 102C293.715 101.471 294.784 100.647 295.607 99.6034C296.43 98.5595 296.981 97.3278 297.212 96.0186C297.212 96.0186 299.904 103.501 292.495 102Z" fill="#263238"/>
<path d="M299.301 101.878C298.733 101.496 298.079 101.262 297.399 101.195C296.718 101.128 296.031 101.231 295.4 101.494C295.4 101.494 297.913 98.2382 299.301 101.878Z" fill="#263238"/>
<path d="M278.721 181.788C278.721 181.788 285.527 227.599 289.256 244.759C293.336 263.527 308.758 326.163 308.758 326.163H319.733C319.733 326.163 309.574 265.069 307.24 246.432C304.711 226.236 299.407 181.756 299.407 181.756L278.721 181.788Z" fill="#71D868"/>
<path opacity="0.5" d="M278.721 181.788C278.721 181.788 285.527 227.599 289.256 244.759C293.336 263.527 308.758 326.163 308.758 326.163H319.733C319.733 326.163 309.574 265.069 307.24 246.432C304.711 226.236 299.407 181.756 299.407 181.756L278.721 181.788Z" fill="white"/>
<path d="M307.004 322.116C306.955 322.116 308.138 326.335 308.138 326.335H320.492L320.264 322.573L307.004 322.116Z" fill="#71D868"/>
<path opacity="0.1" d="M307.004 322.116C306.955 322.116 308.138 326.335 308.138 326.335H320.492L320.264 322.573L307.004 322.116Z" fill="black"/>
<path d="M283.021 198.109C290.888 199.651 290.055 228.986 289.109 244.074C286.84 233.409 283.519 212.886 281.251 198.321C281.8 198.05 282.424 197.975 283.021 198.109Z" fill="#71D868"/>
<path opacity="0.4" d="M283.021 198.109C290.888 199.651 290.055 228.986 289.109 244.074C286.84 233.409 283.519 212.886 281.251 198.321C281.8 198.05 282.424 197.975 283.021 198.109Z" fill="white"/>
<path d="M267.346 181.788C267.346 181.788 266.53 226.603 267.175 244.89C267.852 263.902 274.519 326.163 274.519 326.163H284.67C284.67 326.163 285.045 265.012 285.486 246.342C285.984 225.983 288.44 181.788 288.44 181.788H267.346Z" fill="#71D868"/>
<path opacity="0.5" d="M267.346 181.788C267.346 181.788 266.53 226.603 267.175 244.89C267.852 263.902 274.519 326.163 274.519 326.163H284.67C284.67 326.163 285.045 265.012 285.486 246.342C285.984 225.983 288.44 181.788 288.44 181.788H267.346Z" fill="white"/>
<path d="M276.624 318.868C276.599 318.868 276.576 318.859 276.558 318.843C276.539 318.826 276.528 318.803 276.526 318.779C274.731 301.545 270.512 259.847 269.998 244.89C269.451 229.622 269.949 195.367 270.112 185.232C270.112 185.206 270.123 185.181 270.141 185.163C270.159 185.144 270.184 185.134 270.21 185.134C270.237 185.134 270.263 185.144 270.283 185.162C270.302 185.18 270.314 185.205 270.316 185.232C270.153 195.367 269.655 229.622 270.202 244.882C270.732 259.839 274.951 301.52 276.73 318.754C276.73 318.782 276.721 318.809 276.703 318.83C276.685 318.851 276.66 318.864 276.632 318.868H276.624Z" fill="#71D868"/>
<path opacity="0.4" d="M276.624 318.868C276.599 318.868 276.576 318.859 276.558 318.843C276.539 318.826 276.528 318.803 276.526 318.779C274.731 301.545 270.512 259.847 269.998 244.89C269.451 229.622 269.949 195.367 270.112 185.232C270.112 185.206 270.123 185.181 270.141 185.163C270.159 185.144 270.184 185.134 270.21 185.134C270.237 185.134 270.263 185.144 270.283 185.162C270.302 185.18 270.314 185.205 270.316 185.232C270.153 195.367 269.655 229.622 270.202 244.882C270.732 259.839 274.951 301.52 276.73 318.754C276.73 318.782 276.721 318.809 276.703 318.83C276.685 318.851 276.66 318.864 276.632 318.868H276.624Z" fill="white"/>
<path d="M272.544 322.116C272.503 322.116 273.123 326.335 273.123 326.335H285.469L285.804 322.573L272.544 322.116Z" fill="#71D868"/>
<path opacity="0.1" d="M272.544 322.116C272.503 322.116 273.123 326.335 273.123 326.335H285.469L285.804 322.573L272.544 322.116Z" fill="black"/>
</svg>
